<svg width="48" height="48" viewBox="0 0 48 48" fill="none" xmlns="http://www.w3.org/2000/svg"><path fill-rule="evenodd" clip-rule="evenodd" d="M27.796 30.503c0 .924-.067 1.832-.196 2.72a15.379 15.379 0 0 1-4.203.582c-1.171 0-2.312-.131-3.408-.379a16.432 16.432 0 0 0 2.308-8.425l-.001-.092a6.564 6.564 0 0 0 4.386-.784 18.7 18.7 0 0 1 1.114 6.378zm-7.716-6.396l-.273.317a18.881 18.881 0 0 1-7.143 5.02 15.402 15.402 0 0 1-3.98-6.49c2.87.036 5.788-.676 8.454-2.215l.071-.043a6.624 6.624 0 0 0 2.87 3.41zm15.991-3.459c.8.462 1.552.973 2.255 1.529a15.372 15.372 0 0 1-3.63 6.687 16.437 16.437 0 0 0-6.14-6.205l-.08-.045a6.578 6.578 0 0 0 1.52-4.188 18.662 18.662 0 0 1 6.075 2.222zm-12.674-6.653a4.4 4.4 0 0 1 4.399 4.402 4.4 4.4 0 0 1-4.4 4.402 4.4 4.4 0 0 1-4.398-4.402 4.4 4.4 0 0 1 4.399-4.402zm-5.16.14l.081.046a6.578 6.578 0 0 0-1.52 4.187 18.66 18.66 0 0 1-6.075-2.222c-.8-.461-1.552-.973-2.256-1.528a15.383 15.383 0 0 1 3.632-6.688 16.427 16.427 0 0 0 6.139 6.206zm19.79-.55l.08.256a16.44 16.44 0 0 0-8.451 2.215l-.072.042a6.624 6.624 0 0 0-2.87-3.41 18.873 18.873 0 0 1 7.416-5.337 15.407 15.407 0 0 1 3.897 6.233zM23.397 2.99c1.17 0 2.311.13 3.407.379a16.443 16.443 0 0 0-2.307 8.425v.092a6.635 6.635 0 0 0-1.1-.092 6.565 6.565 0 0 0-3.284.875 18.671 18.671 0 0 1-1.115-6.377c0-.925.067-1.833.196-2.722a15.418 15.418 0 0 1 4.203-.58z" fill="#fff"/><path d="M5 46H3a1 1 0 1 0 0 2h2a1 1 0 1 0 0-2zM14 46a2 2 0 1 0-4 0 2 2 0 0 0 4 0zM21 46h-2a1 1 0 1 0 0 2h2a1 1 0 1 0 0-2zM30 46a2 2 0 1 0-4 0 2 2 0 0 0 4 0zM38 46a2 2 0 1 0-4 0 2 2 0 0 0 4 0zM45 46h-2a1 1 0 1 0 0 2h2a1 1 0 1 0 0-2z" fill="#fff"/></svg>